<svg xmlns="http://www.w3.org/2000/svg" width="49" height="48" viewBox="0 0 49 48" fill="none">
  <path d="M11.625 19H17.625V36C17.625 37.66 16.285 39 14.625 39C12.965 39 11.625 37.66 11.625 36V19ZM14.625 9C16.285 9 17.625 10.34 17.625 12V17H11.625V12C11.625 10.34 12.965 9 14.625 9ZM31.625 31H37.625V36C37.625 37.66 36.285 39 34.625 39C32.965 39 31.625 37.66 31.625 36V31ZM21.625 25H27.625V36C27.625 37.66 26.285 39 24.625 39C22.965 39 21.625 37.66 21.625 36V25ZM24.625 17C26.285 17 27.625 18.34 27.625 20V23H21.625V20C21.625 18.34 22.965 17 24.625 17ZM37.625 29H31.625V28C31.625 26.34 32.965 25 34.625 25C36.285 25 37.625 26.34 37.625 28V29Z" fill="url(#paint0_linear_2898_33606)"/>
  <defs>
    <linearGradient id="paint0_linear_2898_33606" x1="24.625" y1="9" x2="24.625" y2="39" gradientUnits="userSpaceOnUse">
      <stop stop-color="#FE6E8A"/>
      <stop offset="1" stop-color="#6A5AE0"/>
    </linearGradient>
  </defs>
</svg>