<svg xmlns="http://www.w3.org/2000/svg" width="202" height="140" viewBox="0 0 202 140" fill="none">
  <g clip-path="url(#clip0_1325_9278)">
    <path d="M39.939 47.2019C40.837 46.5417 41.7534 45.9365 42.6698 45.3313C43.128 45.0195 43.4213 44.616 43.4579 44.0475C43.4946 43.2955 42.8531 42.7087 42.1017 42.837C41.7718 42.8921 41.4052 43.0204 41.1486 43.2222C39.4808 44.4876 37.8313 45.7898 36.2001 47.1102C35.9435 47.312 35.7236 47.6421 35.6137 47.9539C35.522 48.1923 35.522 48.5408 35.6137 48.7975C35.8519 49.5311 36.64 49.7512 37.3181 49.256C38.2162 48.5958 39.0593 47.8805 39.939 47.2203V47.2019Z" fill="white"/>
    <path d="M196.879 47.789C196.678 47.2571 196.439 46.7069 196.109 46.2301C195.505 45.3681 194.368 45.093 193.452 45.4965C192.536 45.9 191.986 46.927 192.187 47.9357C192.279 48.3942 192.481 48.816 192.609 49.2562C193.067 50.8884 193.525 52.5023 193.965 54.1346C194.038 54.3913 193.965 54.6664 193.965 55.0699C187.569 54.0245 181.319 52.9975 175.124 51.9705C173.676 49.1461 172.302 46.5785 171.037 43.9743C169.553 40.8932 167.591 38.1605 165.356 35.6113C162.661 32.5118 159.381 30.2743 155.367 29.1923C152.27 28.367 149.172 27.5784 146.093 26.6981C144.352 26.2029 142.611 25.7994 140.815 25.561C136.764 25.0291 132.934 25.6527 129.305 27.56C128.425 28.0185 127.564 28.5137 126.721 29.0089C121.589 31.9983 116.439 34.9694 110.849 37.0601C109.328 37.6287 107.788 38.1789 106.249 38.674C105.442 38.9308 104.746 39.2609 104.324 40.0495C103.848 40.9298 103.719 41.8102 104.196 42.7272C104.654 43.6075 105.094 44.4694 105.534 45.3131C105.461 45.4231 105.442 45.4965 105.406 45.5148C105.259 45.6065 105.112 45.6982 104.966 45.7716C102.308 47.0737 100.787 49.2195 100.274 52.1172C99.8523 54.5564 99.7423 56.9773 100.714 59.3798C100.42 59.7283 100.127 60.0767 99.8156 60.4435C98.9175 59.3981 98.1478 58.3895 97.2497 57.4908C96.37 56.5738 95.3803 55.7668 94.5006 54.9782C94.5006 54.1896 94.5739 53.4743 94.5006 52.7958C94.2623 50.7417 93.6208 48.7977 92.5762 47.037C91.4032 45.038 89.6987 43.7175 87.4261 43.149C87.0045 43.0389 86.583 42.8739 86.1431 42.7272C86.3081 42.1036 86.473 41.6084 86.583 41.0949C86.693 40.5814 86.8029 40.0679 86.8396 39.5543C86.9496 37.9038 85.7949 36.6383 84.1454 36.5466C82.6425 36.4549 81.1213 36.3632 79.6185 36.2348C78.922 36.1798 78.2439 35.9964 77.5474 35.923C75.0549 35.6846 72.5806 35.2628 70.1614 34.6392C66.4958 33.7223 62.8303 32.7686 59.1647 31.8516C55.4442 30.9162 51.7787 31.0813 48.1681 32.3468C46.5186 32.9336 44.9241 33.6306 43.4029 34.5109C40.2322 36.3449 37.0615 38.2155 33.8725 40.0312C30.7385 41.8102 28.3925 44.3961 26.6147 47.4405C25.0935 50.0631 23.9572 52.8875 23.1691 55.8219C22.5643 58.0777 22.1061 60.3518 21.6296 62.6443C21.318 64.1115 21.0798 65.597 20.8232 66.9725C20.6216 67.1376 20.5483 67.2293 20.4383 67.2843C14.9766 69.7602 9.51498 72.2361 4.05332 74.6936C3.81506 74.8037 3.52181 74.822 3.19191 74.8954C2.93533 73.0614 2.97198 71.3191 3.08195 69.5768C3.1186 68.9349 3.19191 68.293 3.15526 67.6511C3.10028 66.6608 2.3855 65.8721 1.46911 65.6704C0.479413 65.4503 -0.565266 65.9272 -0.986804 66.8992C-1.20674 67.431 -1.33503 68.0179 -1.39001 68.5864C-1.60995 71.4475 -1.57329 74.2902 -1.22506 77.1329C-0.620249 82.0113 0.552724 86.7613 2.09225 91.4013C4.67646 99.1774 8.08541 106.568 12.704 113.354C14.4451 115.922 16.3695 118.324 18.6238 120.47C20.0168 121.791 21.538 122.983 23.2608 123.863C24.3604 124.432 25.5151 124.78 26.743 124.945C27.5678 125.055 28.3742 124.945 29.1623 124.688C30.0787 124.376 30.7018 123.459 30.6835 122.542C30.6652 121.534 29.9504 120.672 28.9057 120.433C28.5758 120.36 28.2092 120.342 27.8793 120.378C26.908 120.47 26.0099 120.232 25.2035 119.736C24.3054 119.205 23.4624 118.563 22.6376 117.939C22.4177 117.774 22.2894 117.517 22.1244 117.297C22.3077 117.169 22.381 117.096 22.491 117.041C28.8507 114.638 35.2288 112.235 41.6068 109.815C42.1933 109.595 42.7065 109.668 43.2746 109.906C45.6022 110.878 48.0765 111.3 50.5874 111.428C57.0571 111.74 63.3618 110.768 69.5016 108.733C73.3504 107.467 76.9793 105.798 80.0583 103.102C80.1317 103.029 80.2599 103.01 80.4615 102.937C80.7181 103.047 81.0297 103.194 81.3413 103.341C82.9724 104.074 84.6586 104.386 86.4364 104.129C88.9106 103.762 91.1833 102.845 93.126 101.323C95.3253 99.5993 97.4147 97.7286 99.4857 95.8762C100.091 95.3444 100.494 94.6108 101.007 93.9689C101.172 93.7672 101.355 93.6021 101.575 93.382C101.722 93.7855 101.832 94.0423 101.923 94.3174C102.84 97.2701 104.654 99.4159 107.458 100.736C109.144 101.525 110.812 102.369 112.498 103.176C114.093 103.927 115.761 104.441 117.502 104.679C119.976 105.01 122.395 104.955 124.595 103.561C125.328 103.102 126.006 102.534 126.721 102.02C126.867 102.057 127.051 102.075 127.197 102.149C130.533 103.854 134.143 104.496 137.809 104.753C142.996 105.12 148.182 104.863 153.278 103.726C157.346 102.827 161.268 101.598 164.604 98.9574C165.062 98.5906 165.539 98.5722 166.07 98.6272C167.683 98.8106 169.314 98.994 170.927 99.1408C175.967 99.6359 181.007 100.113 186.048 100.626C186.249 100.645 186.432 100.755 186.726 100.865C186.414 101.378 186.212 101.782 185.919 102.13C185.443 102.717 184.966 103.304 184.416 103.836C183.702 104.551 182.895 105.101 181.869 105.23C181.539 105.266 181.191 105.395 180.879 105.56C180.018 106 179.541 106.972 179.706 107.889C179.871 108.824 180.622 109.613 181.594 109.668C182.272 109.705 182.987 109.631 183.665 109.466C185.168 109.099 186.396 108.182 187.514 107.137C189.017 105.725 190.171 104.056 191.216 102.295C192.664 99.8193 193.782 97.1967 194.735 94.5008C196.678 88.9804 197.906 83.2951 198.657 77.4996C199.555 70.5305 199.775 63.5613 198.914 56.5738C198.547 53.566 197.906 50.595 196.843 47.7523L196.879 47.789ZM92.0996 59.2331C92.2096 59.1047 92.3746 59.0497 92.5762 58.9213C93.8774 59.93 94.9954 61.1404 95.6186 62.6627C96.2234 64.1849 96.1867 65.7621 95.1237 67.1376C94.5922 67.8162 93.9507 68.4397 93.2909 69.0083C91.7881 70.3104 90.1386 71.4108 88.4341 72.4195C86.2898 73.7033 84.1637 75.0238 82.0377 76.3442C80.15 77.518 78.1706 78.5083 76.0079 79.0402C75.1648 79.2419 74.2851 79.297 73.4237 79.352C72.8189 79.3887 72.2874 79.1319 71.9575 78.5817C71.3893 77.628 70.7845 76.711 70.253 75.739C69.7398 74.767 69.7948 73.7033 70.0697 72.6763C70.308 71.7959 70.8212 71.1724 71.8292 70.9706C74.78 70.3471 77.4008 68.9899 79.9484 67.4127C82.6609 65.7254 85.3917 64.0198 88.1042 62.3325C89.5338 61.4339 90.9267 60.4802 92.0996 59.2514V59.2331ZM82.9908 48.2291C83.2474 47.9174 83.5223 47.6056 83.7972 47.2571C86.693 46.5969 88.1958 48.0824 89.1306 50.2282C89.4055 50.8701 89.6071 51.5487 89.8087 52.2089C90.2852 53.7494 89.882 55.0883 88.709 56.1887C88.1592 56.7022 87.591 57.234 86.9679 57.6192C83.284 59.9483 79.5818 62.2592 75.843 64.515C73.8819 65.6887 71.7559 66.4223 69.4832 66.8258C67.5772 67.1559 66.1843 66.5324 65.2129 64.8818C64.9746 64.4783 64.7547 64.0748 64.5714 63.6347C63.71 61.5439 64.1865 59.5815 65.9827 58.1877C66.8074 57.5458 67.7421 57.069 68.6585 56.5371C69.3733 56.1336 70.0881 55.7852 70.6012 55.1066C70.8212 54.8315 71.2794 54.7031 71.6459 54.5931C72.434 54.373 73.2404 54.263 74.0102 54.0245C77.5474 52.9425 80.5532 51.0535 82.9541 48.2108L82.9908 48.2291ZM69.355 39.1875C71.2244 39.536 73.1305 39.9028 75.0549 40.2696C75.0732 40.4713 75.1648 40.6731 75.0915 40.7831C74.9449 41.0032 74.7433 41.3333 74.5234 41.3517C72.9105 41.5901 71.316 41.5717 69.7398 41.0582C69.5566 41.0032 69.3366 40.7831 69.2816 40.5997C69.135 40.1779 68.9884 39.7194 69.3366 39.2059L69.355 39.1875ZM75.1282 101.25C72.9655 102.662 70.6196 103.671 68.182 104.478C62.4821 106.348 56.6539 107.284 50.6424 106.935C48.4247 106.807 46.2437 106.477 44.246 105.395C43.2563 104.863 42.2299 104.844 41.2036 105.211C40.1039 105.596 39.0226 106.037 37.9413 106.44C31.5632 108.843 25.2035 111.227 18.8255 113.629C18.184 113.354 17.8907 112.749 17.5242 112.254C15.7831 109.906 14.2619 107.43 12.8689 104.863C9.55163 98.7373 6.96742 92.3366 5.13465 85.6059C5.02469 85.2208 4.95138 84.8173 4.85974 84.3404C5.18964 84.1204 5.50121 83.8636 5.84943 83.6802C7.40729 82.8916 8.98347 82.1396 10.5413 81.351C10.9629 81.1493 11.3661 80.9109 11.7326 80.6174C12.1725 80.269 12.2275 79.6638 11.9892 79.1869C11.7326 78.6917 11.2561 78.3983 10.7063 78.49C10.3214 78.5634 9.91819 78.7101 9.56996 78.8935C8.21371 79.5537 6.85746 80.2323 5.50121 80.8925C5.15298 81.0759 4.7681 81.2226 4.41987 81.3694C3.92502 80.9292 3.9067 80.4157 3.99833 79.7738C4.51151 79.517 5.07967 79.2236 5.64783 78.9668C11.1645 76.4726 16.6811 73.9784 22.1978 71.4842C22.5643 71.3191 22.9309 71.1174 23.3157 70.9706C24.507 70.5121 25.1668 69.7052 25.3135 68.3664C25.7167 64.7717 26.6147 61.2688 27.4212 57.7476C28.0809 54.8865 29.1806 52.1722 30.6285 49.6413C32.0214 47.2021 33.9458 45.1664 36.475 43.7725C39.5358 42.0853 42.5049 40.2513 45.5656 38.5457C46.8302 37.8304 48.1681 37.2252 49.506 36.7117C52.2369 35.6479 55.0593 35.5012 57.9185 36.1981C60.2278 36.7667 62.537 37.3902 64.9013 38.0138C64.938 38.564 64.9746 39.0042 64.9746 39.4626C65.0296 43.6258 66.4042 45.2397 70.5646 45.8449C72.2324 46.0834 73.9186 46.12 75.6047 45.7899C77.4375 45.4231 78.6104 44.3411 79.3252 42.6905C79.5818 42.1036 79.7468 41.4984 79.985 40.8381C80.6265 40.6914 81.2313 40.6547 81.9094 40.8932C81.7995 41.26 81.7445 41.6084 81.6162 41.9202C79.7834 46.1934 76.4844 48.816 72.0308 49.843C66.3675 51.1635 61.1808 49.8614 56.5256 46.3951C56.0124 46.01 55.5359 45.5698 55.0044 45.2397C53.6664 44.4328 52.0719 45.1113 51.687 46.5969C51.4854 47.3305 51.687 47.9907 52.1636 48.5592C52.4568 48.926 52.8234 49.2195 53.1716 49.5129C54.5278 50.6317 55.9941 51.5853 57.5519 52.374C58.0101 52.6124 58.4866 52.8508 59.0548 53.1442C58.7249 53.4193 58.5049 53.6577 58.2484 53.8228C56.6172 54.9415 54.986 56.0786 53.3182 57.124C52.0902 57.8943 50.789 58.5545 49.4694 59.1597C47.0135 60.2968 44.5026 60.2418 41.9917 59.3798C41.3869 59.1781 40.8004 58.903 40.1956 58.7012C38.876 58.2794 37.8313 58.6462 37.3548 59.6732C36.8783 60.7003 37.3181 61.7273 38.5461 62.3876C40.3972 63.3962 42.3582 64.1298 44.4659 64.4233C46.1704 64.6617 47.8382 64.4966 49.4694 63.9648C51.8153 63.2128 53.9963 62.1491 56.0307 60.7553C57.1854 59.9667 58.34 59.1781 59.513 58.4078C59.7329 58.2611 59.9895 58.1694 60.4477 57.9676C59.8612 59.93 59.4397 61.654 59.8979 63.4879C60.3377 65.2669 61.1808 66.8625 62.2438 68.3847C62.2071 69.0633 62.0422 69.7419 61.7673 70.3838C61.2724 71.5025 60.8142 72.6396 60.2094 73.7033C57.7718 77.9398 54.6195 81.5895 50.7707 84.5972C49.8176 85.3491 48.7729 86.0094 47.7099 86.6146C46.5919 87.2748 45.419 87.7333 44.0627 87.6233C43.7328 87.5866 43.3663 87.6783 43.0547 87.8067C42.3032 88.1185 41.8451 88.7053 41.7351 89.5123C41.6251 90.411 41.9184 91.1629 42.6881 91.6214C43.1647 91.9148 43.7511 92.0799 44.3193 92.1532C45.4373 92.3 46.5186 91.9882 47.5633 91.6397C49.2861 91.0528 50.844 90.1358 52.3285 89.0905C55.6825 86.7246 58.5416 83.8086 61.0525 80.5807C62.3721 78.8751 63.5817 77.0962 64.5714 75.1705C64.718 74.877 64.9196 74.6019 65.0663 74.3452C65.5428 74.3452 65.4512 74.657 65.4695 74.8404C65.5611 76.1425 66.0193 77.3346 66.6791 78.4533C66.9724 78.9485 67.2839 79.4437 67.5772 79.9572C68.4019 81.3877 69.355 82.7082 71.0594 83.4051C70.9495 84.102 70.8395 84.6155 70.7845 85.1291C70.5646 87.1098 70.8945 88.9621 71.9941 90.6494C72.5256 91.4747 73.0938 92.3 73.6803 93.1069C74.5234 94.2623 75.6414 95.0876 76.8876 95.6745C77.1442 96.8116 77.3642 97.8753 77.6391 99.0674C77.0526 99.966 76.1545 100.59 75.2382 101.195L75.1282 101.25ZM96.26 92.7585C94.4456 94.4641 92.5212 96.0596 90.5968 97.6552C89.6071 98.4622 88.4341 98.994 87.1878 99.3792C86.2898 99.6543 85.3917 99.7826 84.4387 99.6359C83.3023 99.4709 82.4959 98.884 82.0377 97.857C81.7078 97.1234 81.3963 96.3714 81.5246 95.4728C87.0229 92.5567 92.5395 90.0258 97.7079 86.7246C98.2578 89.0538 97.7629 91.3463 96.26 92.7585ZM98.2394 77.7931C98.0561 78.2149 97.9462 78.6917 97.9279 79.1502C97.8912 80.0306 97.5063 80.7275 96.8832 81.2777C96.1501 81.9379 95.4353 82.6348 94.6289 83.2034C93.3826 84.047 92.0813 84.854 90.7617 85.5692C88.0492 87.0364 85.3184 88.4669 82.5692 89.8608C81.6345 90.3376 80.6632 90.7411 79.6918 91.1262C78.6288 91.548 77.749 91.3096 77.1076 90.3376C76.6494 89.659 76.1729 88.9988 75.733 88.3202C75.1099 87.3849 75.0732 86.3395 75.2565 85.2758C75.4031 84.3955 75.9529 83.8269 76.7777 83.5151C77.0526 83.4234 77.3275 83.3501 77.6208 83.2767C80.3149 82.4698 82.8258 81.2593 85.1534 79.6821C85.8866 79.1869 86.6013 78.7101 87.3528 78.2699C90.4135 76.4543 93.5292 74.767 96.315 72.3461C97.1214 73.0797 97.6163 73.795 97.9828 74.6019C98.4594 75.629 98.6976 76.6743 98.2394 77.7931ZM121.094 37.6653C121.442 38.1055 121.406 38.6007 121.296 39.2242C121.039 39.4076 120.746 39.7194 120.379 39.8294C119.188 40.2513 117.978 40.6364 116.75 40.9665C116.201 41.1132 116.127 41.0215 115.651 40.2146C116.659 39.536 120.141 37.9038 121.094 37.647V37.6653ZM105.021 51.9155C105.607 50.2832 106.725 49.3112 108.485 49.1828C108.796 49.1645 109.144 49.2745 109.456 49.4029C109.658 49.4762 109.841 49.678 110.024 49.8064C113.231 52.0072 116.787 53.1259 120.673 53.1075C121.369 53.1075 122.065 53.0892 122.762 53.0525C123.238 53.0159 123.642 53.1442 124.063 53.4193C124.54 53.7311 125.108 53.9145 125.658 54.0796C126.556 54.3547 127.472 54.5197 128.352 54.7948C128.902 54.9782 129.452 55.1983 129.91 55.5284C131.229 56.4454 132.036 57.6925 131.852 59.3615C131.761 60.2234 131.578 61.0854 131.321 61.9107C130.899 63.2679 129.873 64.0015 128.517 64.2032C127.655 64.3316 126.776 64.3499 125.914 64.4049C123.862 64.4049 121.864 63.9648 119.903 63.3962C116.457 62.3692 112.993 61.3422 109.566 60.2418C108.466 59.8933 107.403 59.3981 106.395 58.8479C105.149 58.151 104.489 57.0506 104.526 55.5468C104.562 54.318 104.599 53.1075 105.002 51.9338L105.021 51.9155ZM120.581 100.259C119.06 100.425 117.557 100.259 116.127 99.7276C113.506 98.7923 111.014 97.5268 108.595 96.1513C107.861 95.7479 107.312 95.161 106.927 94.409C106.377 93.327 105.809 92.2633 105.735 91.0895C105.827 90.9795 105.864 90.9245 105.919 90.8878C105.974 90.8695 106.029 90.8511 106.084 90.8694C108.595 91.5297 111.105 92.2449 113.653 92.8502C116.97 93.6388 120.324 94.3174 123.843 95.0876C123.88 95.6928 123.953 96.2064 123.953 96.7199C123.917 99.1958 122.212 100.058 120.599 100.241L120.581 100.259ZM127.6 85.991C127.307 87.2198 126.812 88.4119 126.336 89.604C126.098 90.1909 125.529 90.466 124.906 90.4293C123.807 90.3376 122.689 90.2642 121.626 90.0258C118.217 89.2922 114.808 88.5219 111.435 87.6966C110.079 87.3665 108.76 86.9264 107.44 86.4679C106.175 86.0277 105.039 85.3125 103.994 84.4505C103.188 83.7902 102.748 82.9283 102.565 81.9196C102.51 81.5894 102.491 81.2043 102.601 80.8925C103.041 79.7188 103.206 78.5267 103.206 77.2979C103.206 77.1512 103.316 76.9861 103.408 76.7477C103.756 76.8394 104.104 76.8761 104.398 77.0045C106.688 78.0132 109.089 78.7284 111.509 79.3703C112.975 79.7555 114.423 80.1773 115.852 80.6725C118.675 81.6628 121.589 82.1947 124.558 82.323C125.383 82.3597 126.226 82.3597 126.794 83.0566C127.472 83.9003 127.857 84.9457 127.619 85.991H127.6ZM127.161 77.4813C126.189 77.6464 125.199 77.7931 124.228 77.7564C122.249 77.683 120.306 77.3346 118.4 76.7477C115.779 75.9591 113.158 75.2255 110.556 74.3819C108.796 73.8133 107.055 73.1164 105.332 72.4378C104.691 72.1811 104.104 71.7776 103.518 71.4108C101.905 70.4388 101.19 67.9079 101.74 66.3306C102.198 65.0102 102.785 63.763 103.573 62.5343C104.288 62.9011 104.874 63.2679 105.497 63.5246C106.634 63.9831 107.77 64.4233 108.924 64.7717C111.912 65.7071 114.936 66.5691 117.923 67.5044C120.783 68.3847 123.678 69.0083 126.666 68.8432C127.784 68.7882 128.443 69.3017 128.938 70.127C129.488 71.044 129.763 72.0527 129.488 73.1347C129.232 74.1434 128.938 75.1521 128.645 76.1608C128.425 76.9128 127.875 77.3529 127.161 77.4813ZM194.991 66.2023C194.808 69.3934 194.717 72.6212 194.368 75.794C193.763 81.241 192.664 86.6146 190.941 91.8231C190.538 93.0336 190.061 94.2257 189.603 95.4361C189.475 95.7479 189.292 96.0413 189.127 96.3714C187.862 96.2614 186.652 96.1513 185.443 96.023C181.337 95.6195 177.214 95.1977 173.108 94.7759C170.616 94.5191 168.123 94.299 165.63 94.0239C164.274 93.8772 163.101 94.189 162.111 95.161C161.067 96.2064 159.747 96.8483 158.409 97.4351C155.385 98.7189 152.215 99.4342 148.971 99.8927C145.488 100.388 142.006 100.443 138.505 100.259C136.288 100.131 134.107 99.7827 131.981 99.1591C130.771 98.7923 129.525 98.4072 128.535 97.5085C128.48 96.3898 128.425 95.2894 128.37 94.1156C129.25 93.3087 130.13 92.4467 130.588 91.2913C131.028 90.2092 131.449 89.1272 131.816 88.0268C132.457 86.0644 132.311 84.1204 131.504 82.213C131.321 81.7912 131.119 81.3694 130.936 80.9292C133.465 77.8848 134.327 74.3268 134.052 70.2004C134.638 70.7689 135.041 71.1724 135.445 71.5759C139.88 75.9958 144.975 79.3887 150.877 81.5344C152.416 82.0846 153.992 82.5064 155.642 82.5798C156.558 82.6165 157.493 82.5431 158.428 82.4147C159.124 82.323 159.766 82.0113 160.279 81.4977C160.975 80.8192 161.14 79.7555 160.737 78.9118C160.334 78.1232 159.491 77.628 158.593 77.683C158.428 77.683 158.244 77.7197 158.079 77.7931C156.632 78.3249 155.202 78.0498 153.791 77.6647C152.838 77.3896 151.885 77.0962 150.987 76.711C146.313 74.7303 142.189 71.9426 138.634 68.3297C137.406 67.0826 136.288 65.7438 135.518 64.0381C135.628 63.653 135.756 63.2128 135.903 62.7727C136.251 61.654 136.453 60.5169 136.489 59.3431C136.544 57.6008 136.159 55.9869 135.188 54.5381C135.005 54.2446 134.84 53.9512 134.565 53.4743C135.005 53.5477 135.28 53.5477 135.518 53.6211C136.838 54.0612 138.157 54.5014 139.477 54.9782C141.804 55.8219 144.205 56.2437 146.643 56.3904C148.604 56.5004 150.455 56.0786 152.233 55.235C153.992 54.4097 155.495 53.2176 156.906 51.9155C157.493 51.3653 157.823 50.705 157.621 49.8797C157.328 48.6876 156.045 48.0457 154.854 48.5592C154.377 48.761 153.956 49.0911 153.534 49.4029C152.508 50.1732 151.408 50.8151 150.198 51.2736C148.146 52.0622 146.075 51.9338 144.004 51.5303C143.087 51.3469 142.189 51.1085 141.31 50.8334C139.367 50.2098 137.461 49.5313 135.518 48.8527C135.243 48.761 135.005 48.6326 134.602 48.4492C134.95 48.0824 135.188 47.789 135.481 47.5506C136.948 46.2851 138.249 44.8729 139.348 43.2957C139.623 42.9106 139.88 42.5254 140.063 42.1036C140.503 41.0582 140.118 39.9395 139.202 39.3526C138.359 38.8207 137.204 38.9308 136.471 39.6644C136.104 40.0312 135.811 40.4897 135.5 40.8932C132.549 44.8362 128.7 47.4405 123.843 48.3025C118.565 49.2378 113.891 48.0091 110.226 43.8642C109.841 43.4424 109.383 43.0389 109.346 42.342C109.658 42.232 109.987 42.1036 110.317 42.0119C110.537 41.9385 110.757 41.9202 111.087 41.8468C111.38 42.2687 111.674 42.6905 111.967 43.1123C113.323 45.0747 115.119 45.9366 117.539 45.4781C119.151 45.1847 120.691 44.7079 122.194 44.0293C122.615 43.8459 123.019 43.6075 123.422 43.3507C125.2 42.177 125.988 40.5264 125.676 38.4173C125.529 37.4453 125.273 36.4732 125.053 35.4279C125.346 35.2261 125.639 34.951 125.988 34.7676C127.435 33.9057 128.92 33.0987 130.368 32.2184C134.217 29.8709 138.34 29.4491 142.647 30.5128C145.25 31.1547 147.816 31.9066 150.4 32.5852C151.701 32.9336 153.003 33.2454 154.286 33.5939C157.236 34.4008 159.711 36.0331 161.708 38.2889C163.761 40.5997 165.557 43.094 166.968 45.8816C168.38 48.6876 169.919 51.4386 171.074 54.373C171.532 55.5101 172.283 56.1336 173.511 56.317C176.096 56.7022 178.68 57.1607 181.264 57.6008C185.113 58.2427 188.962 58.8663 192.81 59.4898C193.379 59.5815 193.947 59.7099 194.478 59.8016C194.9 60.2968 194.826 60.792 194.716 61.2688C194.57 61.3422 194.46 61.4339 194.368 61.4155C192.774 61.1221 191.161 60.8103 189.566 60.5169C188.998 60.4068 188.412 60.3335 187.844 60.3335C187.275 60.3335 186.836 60.737 186.726 61.2505C186.597 61.8374 186.872 62.4976 187.422 62.6993C188.027 62.9194 188.65 63.0294 189.273 63.1578C191.088 63.543 192.92 63.8914 194.716 64.2582C195.12 64.9185 195.01 65.5787 194.973 66.1839L194.991 66.2023Z" fill="white"/>
    <path d="M83.9443 112.584C83.5778 112.749 83.2662 113.024 82.9546 113.281C79.9489 115.848 76.9431 118.434 73.9374 121.002C73.6258 121.258 73.3143 121.534 73.0577 121.845C72.6361 122.359 72.6545 122.982 73.0393 123.441C73.4425 123.918 74.0474 124.064 74.5972 123.753C74.9454 123.551 75.2753 123.313 75.5869 123.037C78.5926 120.47 81.5984 117.884 84.5858 115.316C84.8424 115.096 85.1356 114.876 85.3372 114.601C85.5205 114.326 85.6121 113.996 85.6855 113.812C85.6488 112.785 84.7507 112.199 83.9077 112.565L83.9443 112.584Z" fill="white"/>
    <path d="M58.8725 14.9239C58.4143 15.3457 58.286 15.9692 58.6342 16.5011C58.8542 16.8312 59.1474 17.143 59.4223 17.4181C61.7683 19.6739 64.0959 21.9297 66.4418 24.1855C66.7351 24.4606 67.0283 24.7541 67.3766 24.9375C68.238 25.4143 69.2643 24.7907 69.246 23.7087C69.191 23.562 69.1177 23.2869 68.9711 23.0484C68.8244 22.81 68.6045 22.5899 68.4029 22.4065C65.9836 20.0774 63.5461 17.7299 61.1268 15.4007C60.8702 15.1623 60.6136 14.9422 60.3021 14.7588C59.8255 14.4654 59.2574 14.5571 58.8542 14.9239H58.8725Z" fill="white"/>
    <path d="M137.992 118.288C136.874 117.279 135.72 116.289 134.583 115.298C133.227 114.106 131.871 112.932 130.515 111.74C130.111 111.392 129.727 111.062 129.305 111.043C128.334 110.988 127.674 111.722 127.912 112.529C128.022 112.896 128.26 113.281 128.554 113.519C131.211 115.867 133.887 118.196 136.563 120.525C136.819 120.745 137.131 120.929 137.443 121.057C137.919 121.259 138.487 121.057 138.817 120.599C139.129 120.195 139.202 119.718 138.909 119.296C138.652 118.93 138.322 118.581 137.974 118.269L137.992 118.288Z" fill="white"/>
    <path d="M102.801 109.521C102.801 109.283 102.746 109.062 102.673 108.842C102.471 108.255 101.922 107.907 101.317 107.98C100.785 108.035 100.364 108.402 100.235 108.971C100.18 109.191 100.162 109.429 100.162 109.649C100.254 111.208 100.364 112.785 100.474 114.344C100.474 114.344 100.492 114.344 100.51 114.344C100.602 115.848 100.675 117.352 100.785 118.856C100.84 119.553 100.895 120.25 101.042 120.928C101.17 121.515 101.812 121.882 102.38 121.809C102.893 121.754 103.388 121.332 103.461 120.818C103.516 120.47 103.516 120.121 103.498 119.773C103.259 116.362 103.021 112.932 102.783 109.521H102.801Z" fill="white"/>
    <path d="M93.8776 15.6758C93.9509 17.3631 94.0059 19.0504 94.0975 20.7193C94.1158 21.1228 94.1708 21.5263 94.3174 21.8931C94.5007 22.4066 95.0506 22.6817 95.5821 22.6083C96.0952 22.5533 96.4801 22.2599 96.5901 21.783C96.7 21.3429 96.7367 20.866 96.7367 20.4075C96.7367 19.7656 96.6451 19.1421 96.6084 18.5002C96.4801 16.006 96.3885 13.5117 96.2602 11.0175C96.2602 10.669 96.2235 10.3206 96.1502 9.99047C96.0036 9.38525 95.4354 8.98177 94.8856 9.00011C94.3174 9.03679 93.7859 9.49529 93.7126 10.1005C93.6577 10.449 93.6943 10.7974 93.7126 11.1459C93.7493 12.6498 93.8043 14.172 93.8409 15.6758C93.8409 15.6758 93.8776 15.6758 93.8959 15.6758H93.8776Z" fill="white"/>
    <path d="M119.554 20.2057C119.866 19.9489 120.159 19.6738 120.397 19.3437C122.01 17.1429 123.605 14.9421 125.181 12.723C125.383 12.4479 125.584 12.1544 125.731 11.8427C125.987 11.2741 125.822 10.6873 125.309 10.3021C124.833 9.93531 124.21 9.95365 123.715 10.3938C123.55 10.5405 123.385 10.7239 123.238 10.9073C121.497 13.2915 119.774 15.694 118.051 18.0966C117.887 18.335 117.758 18.6101 117.685 18.8852C117.483 19.6371 118.143 20.4441 119.023 20.4441C119.133 20.4074 119.371 20.3707 119.536 20.224L119.554 20.2057Z" fill="white"/>
    <path d="M51.6874 79.7367C51.8707 79.645 52.3105 79.535 52.5488 79.2599C53.8134 77.8293 55.1696 76.4722 56.1044 74.7849C56.306 74.4365 56.4526 74.0513 56.5625 73.6662C56.6908 73.171 56.3426 72.6208 55.8478 72.4007C55.4262 72.2173 54.9497 72.3457 54.6015 72.7308C54.4915 72.8592 54.3999 73.0243 54.2899 73.1527C53.5385 74.1063 52.787 75.06 52.0173 75.9954C51.6141 76.4905 51.1375 76.9124 50.7527 77.4259C50.5327 77.7376 50.3495 78.1411 50.2945 78.5263C50.1845 79.2048 50.771 79.755 51.669 79.7367H51.6874Z" fill="white"/>
    <path d="M154.762 36.4731C152.947 35.6845 151.133 34.9143 149.3 34.144C149.08 34.0523 148.86 33.9973 148.622 33.9606C147.98 33.8505 147.412 34.1807 147.211 34.7125C146.991 35.2811 147.174 35.9046 147.687 36.2531C147.98 36.4365 148.31 36.5465 148.64 36.6749C150.473 37.3901 152.324 38.1237 154.175 38.839C154.395 38.9307 154.615 39.0041 154.835 39.0407C155.44 39.1141 155.971 38.6189 156.008 37.8486C155.916 37.6836 155.825 37.3351 155.623 37.0784C155.403 36.8216 155.092 36.6199 154.78 36.4731H154.762Z" fill="white"/>
    <path d="M148.568 69.5583C147.01 68.4579 145.269 67.6326 143.913 66.2021C143.546 65.7986 142.85 65.8719 142.465 66.2021C142.025 66.5872 141.915 67.2291 142.318 67.7793C142.703 68.2928 143.125 68.788 143.62 69.1731C144.811 70.0901 146.057 70.9521 147.304 71.8141C147.578 71.9975 147.927 72.1258 148.275 72.1809C148.88 72.2909 149.576 71.6857 149.613 70.9704C149.576 70.8604 149.558 70.6036 149.43 70.4386C149.191 70.1268 148.916 69.815 148.587 69.5766L148.568 69.5583Z" fill="white"/>
    <path d="M72.5265 62.2593C72.5998 62.8278 73.1313 63.2313 73.9011 63.2496C74.0111 63.2496 74.2493 63.2313 74.4693 63.1763C76.3387 62.6994 78.0615 61.8375 79.766 60.9755C79.9126 60.9021 80.0409 60.7737 80.1508 60.627C80.4807 60.2419 80.554 59.7834 80.3524 59.3249C80.1508 58.848 79.766 58.5913 79.2528 58.628C78.9229 58.628 78.538 58.7013 78.2448 58.8664C76.6502 59.71 75.0557 60.5353 73.3329 61.0855C72.7648 61.2689 72.4532 61.8191 72.5082 62.2776L72.5265 62.2593Z" fill="white"/>
    <path d="M116.292 61.2138C116.457 61.2872 116.622 61.3422 116.787 61.3789C118.344 61.6357 119.884 61.8741 121.35 62.1125C121.918 62.0575 122.377 62.0575 122.835 61.9658C123.495 61.8191 123.861 61.3055 123.788 60.7003C123.733 60.1685 123.33 59.8017 122.743 59.71C122.688 59.71 122.633 59.71 122.56 59.71C120.965 59.71 119.444 59.3065 117.905 58.9764C117.501 58.8847 117.098 58.793 116.695 58.793C116.09 58.793 115.559 59.2698 115.449 59.8383C115.339 60.3885 115.669 60.9571 116.273 61.2138H116.292Z" fill="white"/>
    <path d="M118.309 73.0615C117.375 72.6214 116.421 72.1995 115.487 71.7777C115.34 71.7044 115.157 71.6677 114.992 71.631C114.497 71.5577 114.057 71.7594 113.819 72.1812C113.581 72.5847 113.617 73.0982 113.929 73.465C114.076 73.6484 114.24 73.8501 114.424 73.9235C115.523 74.4003 116.641 74.8955 117.778 75.2807C118.401 75.5007 119.079 74.9139 119.134 74.2169C119.134 73.6851 118.822 73.2816 118.328 73.0432L118.309 73.0615Z" fill="white"/>
    <path d="M84.2732 70.4756C84.0899 70.5489 83.6867 70.659 83.3751 70.8974C82.6237 71.4476 81.9272 72.0712 81.2125 72.658C81.0292 72.8048 80.8642 72.9882 80.7359 73.1716C80.2777 73.7951 80.5343 74.6571 81.2858 74.8588C81.579 74.9322 82.0189 74.9138 82.2755 74.7488C83.1918 74.1252 84.0899 73.465 84.9147 72.7497C85.1896 72.5113 85.3728 72.0712 85.4645 71.686C85.6111 71.1175 85.0796 70.5123 84.2732 70.4756Z" fill="white"/>
  </g>
  <defs>
    <clipPath id="clip0_1325_9278">
      <rect width="201" height="140" fill="white" transform="translate(0.5)"/>
    </clipPath>
  </defs>
</svg>