<svg xmlns="http://www.w3.org/2000/svg" width="124" height="140" viewBox="0 0 124 140" fill="none">
  <g clip-path="url(#clip0_1325_9316)">
    <path d="M122.532 120.533C116.322 101.588 110.113 82.6442 103.903 63.6999C98.4316 47.0011 92.9385 30.2804 87.4887 13.5598C86.9893 12.012 86.1643 10.922 84.7313 10.1154C80.9534 7.95719 77.1972 5.73358 73.4627 3.50998C72.2685 2.79058 71.1178 2.57258 69.7282 2.85598C63.9745 3.96778 58.199 4.97058 52.4236 6.01699C45.2369 7.32499 38.0501 8.67659 30.8634 9.9846C23.0687 11.4234 15.2524 12.8622 7.4577 14.2356C5.61217 14.5626 3.85348 15.0204 2.26849 16.0668C1.16117 16.7862 0.596658 17.7018 0.792067 19.0098C0.900628 19.6856 1.09604 20.3614 1.26973 21.0372C5.89442 37.5835 10.5191 54.1079 15.1438 70.6324C20.4199 89.5112 25.6959 108.368 30.9503 127.247C31.2108 128.185 31.4713 129.1 31.4496 130.103C31.4496 130.67 31.7102 131.346 32.0576 131.825C33.8597 134.201 35.7052 136.512 37.5725 138.845C38.2238 139.651 39.0706 140.044 40.1345 139.978C40.7424 139.891 41.3721 139.826 41.98 139.717C43.9558 139.368 45.9099 139.019 47.8857 138.67C55.5067 137.362 63.106 136.076 70.7269 134.746C78.3479 133.438 85.9472 132.087 93.5681 130.779C102.47 129.231 111.372 127.705 120.274 126.157C120.687 126.092 121.099 126.005 121.468 125.852C122.836 125.307 123.487 124.13 123.184 122.713C123.032 121.971 122.771 121.252 122.532 120.533ZM8.56502 27.1194C7.87023 24.765 7.15373 22.476 6.65435 20.1216C6.9149 19.969 7.08859 19.8382 7.26229 19.7946C27.9323 16.0014 48.5805 12.23 69.3156 8.43679C69.9453 9.50499 70.1407 10.595 70.4881 11.6196C70.8355 12.666 71.1612 13.7342 71.5086 14.8242C71.0309 15.3256 70.4013 15.3692 69.8367 15.4782C57.9819 17.7454 46.1488 19.9908 34.2939 22.258C26.1084 23.8276 17.923 25.419 9.73748 26.9886C9.41179 27.054 9.0644 27.054 8.60844 27.0976L8.56502 27.1194ZM32.4701 112.445C32.2747 111.9 32.0359 111.333 31.8839 110.744C26.6295 91.9528 21.3752 73.1394 16.1209 54.3259C14.2753 47.7205 12.4515 41.1151 10.606 34.5097C10.4323 33.8557 10.0849 33.2235 10.4106 32.3515C31.1891 28.3402 52.0328 24.3726 72.7896 20.3832C73.5929 20.8846 73.6364 21.6258 73.8318 22.258C76.8498 31.7629 79.846 41.2677 82.8423 50.7725C87.619 65.8799 92.3957 81.0092 97.1723 96.1166C97.3895 96.8142 97.7803 97.5118 97.6934 98.2312C97.5849 98.362 97.5632 98.4056 97.498 98.471C97.4546 98.5146 97.3895 98.58 97.3243 98.6018C75.9596 103.223 54.5731 107.823 33.2083 112.423C33.0129 112.467 32.7958 112.423 32.4701 112.423V112.445ZM36.096 125.263C35.0973 122.865 34.663 120.424 33.9031 118.047C34.2722 117.873 34.4893 117.699 34.7499 117.633C37.7896 116.783 98.106 103.965 99.4087 103.877C100.19 105.491 101.645 110.09 101.949 111.965C101.732 112.074 101.493 112.227 101.233 112.292C79.5638 116.63 57.8733 120.947 36.096 125.285V125.263ZM113.5 121.906C89.3343 126.092 65.1686 130.256 40.8944 134.441C40.0911 133.438 39.3094 132.479 38.5495 131.498C38.3541 131.237 38.1804 130.953 37.9199 130.517C38.7232 130.299 39.3529 130.103 40.0042 129.972C52.3802 127.487 64.7561 125.024 77.132 122.56C86.1209 120.772 95.1314 118.985 104.12 117.175C105.271 116.936 106.248 117.023 107.269 117.677C109.005 118.789 110.829 119.791 112.631 120.838C112.979 121.034 113.304 121.296 113.63 121.514L113.543 121.928L113.5 121.906ZM114.064 115.431C112.393 114.472 110.742 113.426 109.027 112.554C108.028 112.031 107.507 111.268 107.182 110.221C105.271 104.074 103.317 97.9478 101.385 91.8002C93.1773 65.7927 84.9484 39.7853 76.7412 13.7778C76.5458 13.1238 76.3721 12.4698 76.1333 11.576C76.6544 11.794 76.9583 11.8812 77.2406 12.0338C78.4999 12.7532 79.7158 13.5598 80.9968 14.2356C81.9304 14.7152 82.4298 15.4128 82.7338 16.3938C84.3622 21.4732 86.034 26.5308 87.7058 31.5885C96.6295 58.8167 105.553 86.0668 114.455 113.295C114.694 114.058 115.128 114.799 115.085 115.846C114.651 115.671 114.347 115.584 114.064 115.431Z" fill="white"/>
    <path d="M27.7808 134.005C26.782 132.196 25.7398 130.43 24.6976 128.642C24.1983 127.792 23.46 127.356 22.483 127.421C21.4842 127.487 20.7677 128.01 20.4638 128.926C20.2901 129.492 20.2032 130.212 20.3986 130.735C21.2237 132.915 22.2659 135.03 23.612 136.97C23.8726 137.362 24.2634 137.689 24.6759 137.929C25.1319 138.191 25.6747 138.321 25.9135 138.409C27.6722 138.343 28.7578 136.97 28.4104 135.531C28.2801 135.008 28.0413 134.485 27.7808 134.005Z" fill="white"/>
    <path d="M94.4384 4.07661C93.3093 3.05201 92.1369 2.0928 90.9861 1.1118C90.7256 0.8938 90.465 0.653999 90.1828 0.457799C89.0755 -0.283404 87.7944 -0.152603 86.9911 0.741199C86.2529 1.5696 86.1443 2.83401 86.9259 3.79321C88.3155 5.51541 89.8137 7.12862 91.6375 8.39302C92.1803 8.76362 92.8968 8.91622 93.2442 9.04702C95.4154 9.09062 96.6313 7.25942 95.7411 5.60261C95.4371 5.01401 94.916 4.51261 94.4166 4.05481L94.4384 4.07661Z" fill="white"/>
    <path d="M59.6977 41.2241C58.7641 41.0061 57.7653 40.9189 56.8317 41.0497C52.0116 41.7255 48.7982 44.4069 47.1698 49.0068C46.9744 49.5954 46.8224 50.2058 46.5836 50.947C46.0191 50.5328 45.5414 50.1622 45.0637 49.8134C42.8925 48.222 40.4825 47.2846 37.8119 47.0884C34.1208 46.8268 31.4068 48.6362 30.1909 52.146C29.6264 53.8028 29.3658 55.525 29.5395 57.269C30.1475 63.1114 32.449 68.1908 36.5526 72.42C38.9192 74.8616 41.5246 76.998 44.1952 79.0908C47.5389 81.7068 51.382 83.4509 55.0296 85.5437C55.2684 85.6745 55.529 85.7835 55.7895 85.8707C57.2877 86.2849 58.547 85.6745 59.1332 84.2139C59.2201 84.0177 59.2201 83.7997 59.2852 83.6035C61.0656 78.8728 62.6289 74.0768 64.6915 69.4552C66.3851 65.662 67.6878 61.7162 68.7951 57.705C69.3596 55.6776 69.4465 53.6502 69.2294 51.5356C68.6866 46.1073 65.1258 42.4667 59.676 41.2023L59.6977 41.2241ZM63.4756 56.8984C62.4552 60.3428 61.261 63.7436 59.9148 67.079C58.547 70.4798 57.2225 73.9024 55.8764 77.3032C55.6375 77.9354 55.377 78.5676 55.073 79.3306C48.9502 76.4966 44.0215 72.529 39.6574 67.842C36.8565 64.8118 35.3801 61.1058 34.9024 57.0074C34.7722 55.8738 34.9459 54.7838 35.3367 53.7374C35.6624 52.8872 36.292 52.4294 37.2473 52.473C39.2666 52.582 40.9818 53.3232 42.48 54.6748C43.7827 55.852 44.6512 57.3562 45.5414 58.8386C45.9105 59.4272 46.1928 60.0594 46.6053 60.6262C47.5606 61.9342 48.8634 62.0868 50.2095 61.1494C51.3168 60.3646 51.8596 59.4054 51.7076 57.9884C51.4688 55.7648 51.6208 53.563 52.0985 51.383C52.359 50.2058 52.8801 49.1594 53.6835 48.2874C55.377 46.4344 57.8088 45.9766 60.1103 47.0012C62.3032 47.9822 63.6059 49.5518 63.9099 52.0152C64.127 53.7156 63.975 55.3288 63.4973 56.942L63.4756 56.8984Z" fill="white"/>
    <path d="M74.2899 110.308C73.6168 110.308 72.922 110.395 72.2489 110.548C68.2973 111.442 64.324 112.357 60.3724 113.273C59.8947 113.382 59.4387 113.491 58.9828 113.687C57.7018 114.232 57.0504 115.453 57.3327 116.674C57.6366 117.96 58.6571 118.745 60.2638 118.745C60.5244 118.701 61.002 118.636 61.4797 118.549C65.5833 117.611 69.6652 116.696 73.7471 115.736C74.2899 115.606 74.8327 115.475 75.3103 115.213C76.4177 114.646 76.917 113.469 76.6348 112.248C76.3742 111.137 75.4623 110.33 74.2682 110.308H74.2899Z" fill="white"/>
  </g>
  <defs>
    <clipPath id="clip0_1325_9316">
      <rect width="122.5" height="140" fill="white" transform="translate(0.75)"/>
    </clipPath>
  </defs>
</svg>