<svg width="37" height="36" viewBox="0 0 37 36" fill="none" xmlns="http://www.w3.org/2000/svg">
<g id="Facebook">
<path id="Oval 10" fill-rule="evenodd" clip-rule="evenodd" d="M18.3626 36C28.2785 36 36.3168 27.9411 36.3168 18C36.3168 8.05888 28.2785 0 18.3626 0C8.44682 0 0.408447 8.05888 0.408447 18C0.408447 27.9411 8.44682 36 18.3626 36Z" fill="white"/>
<path id="Shape" d="M19.4845 14.0208H21.0988C21.2473 14.0208 21.3678 13.9076 21.3678 13.7682V12.2526C21.3678 12.1132 21.2473 12 21.0988 12H19.4845C17.8531 12 16.5251 13.2463 16.5251 14.7786V16.5468H14.6418C14.4933 16.5468 14.3728 16.6599 14.3728 16.7994V18.3149C14.3728 18.4544 14.4933 18.5675 14.6418 18.5675H16.5251V23.8721C16.5251 24.0115 16.6456 24.1247 16.7941 24.1247H18.4084C18.5569 24.1247 18.6774 24.0115 18.6774 23.8721V18.5675H20.5607C20.6764 18.5675 20.7791 18.4978 20.8163 18.3948L21.3544 16.8792C21.3818 16.8024 21.3678 16.7175 21.3172 16.6513C21.2661 16.5857 21.1854 16.5468 21.0988 16.5468H18.6774V14.7786C18.6774 14.3608 19.0395 14.0208 19.4845 14.0208Z" fill="#706AEA"/>
</g>
</svg>
