<svg width="37" height="36" viewBox="0 0 37 36" fill="none" xmlns="http://www.w3.org/2000/svg">
<g id="Facebook">
<path id="Oval 10" fill-rule="evenodd" clip-rule="evenodd" d="M18.1378 36C28.0536 36 36.092 27.9411 36.092 18C36.092 8.05888 28.0536 0 18.1378 0C8.22196 0 0.183594 8.05888 0.183594 18C0.183594 27.9411 8.22196 36 18.1378 36Z" fill="#3A327D"/>
<path id="Shape" d="M19.2602 14.0208H20.8744C21.0229 14.0208 21.1434 13.9076 21.1434 13.7682V12.2526C21.1434 12.1132 21.0229 12 20.8744 12H19.2602C17.6287 12 16.3007 13.2463 16.3007 14.7786V16.5468H14.4175C14.269 16.5468 14.1484 16.6599 14.1484 16.7994V18.3149C14.1484 18.4544 14.269 18.5675 14.4175 18.5675H16.3007V23.8721C16.3007 24.0115 16.4213 24.1247 16.5698 24.1247H18.184C18.3325 24.1247 18.4531 24.0115 18.4531 23.8721V18.5675H20.3363C20.452 18.5675 20.5548 18.4978 20.5919 18.3948L21.13 16.8792C21.1574 16.8024 21.1434 16.7175 21.0929 16.6513C21.0417 16.5857 20.961 16.5468 20.8744 16.5468H18.4531V14.7786C18.4531 14.3608 18.8152 14.0208 19.2602 14.0208Z" fill="white"/>
</g>
</svg>
