<svg width="33" height="32" viewBox="0 0 33 32" fill="none" xmlns="http://www.w3.org/2000/svg">
<g id="topic">
<path id="Vector" d="M27.167 7.9987H16.5003L14.6203 6.1187C14.1137 5.61203 13.4337 5.33203 12.727 5.33203H5.83366C4.36699 5.33203 3.18033 6.53203 3.18033 7.9987L3.16699 23.9987C3.16699 25.4654 4.36699 26.6654 5.83366 26.6654H27.167C28.6337 26.6654 29.8337 25.4654 29.8337 23.9987V10.6654C29.8337 9.1987 28.6337 7.9987 27.167 7.9987ZM17.8337 21.332H9.83366C9.10033 21.332 8.50033 20.732 8.50033 19.9987C8.50033 19.2654 9.10033 18.6654 9.83366 18.6654H17.8337C18.567 18.6654 19.167 19.2654 19.167 19.9987C19.167 20.732 18.567 21.332 17.8337 21.332ZM23.167 15.9987H9.83366C9.10033 15.9987 8.50033 15.3987 8.50033 14.6654C8.50033 13.932 9.10033 13.332 9.83366 13.332H23.167C23.9003 13.332 24.5003 13.932 24.5003 14.6654C24.5003 15.3987 23.9003 15.9987 23.167 15.9987Z" fill="#A0A0A0"/>
</g>
</svg>
