<svg xmlns="http://www.w3.org/2000/svg" width="156" height="140" viewBox="0 0 156 140" fill="none">
  <g clip-path="url(#clip0_1325_9266)">
    <path d="M86.2657 132.96C49.8235 132.96 20.1797 103.49 20.1797 67.2616C20.1797 31.0331 49.8235 1.57715 86.2657 1.57715C122.708 1.57715 152.352 31.0471 152.352 67.2756C152.352 103.504 122.708 132.974 86.2657 132.974V132.96ZM86.2657 5.6041C52.0613 5.6041 24.2446 33.2577 24.2446 67.2616C24.2446 101.265 52.0754 128.919 86.2657 128.919C120.456 128.919 148.287 101.251 148.287 67.2616C148.287 33.2718 120.47 5.6041 86.2657 5.6041Z" fill="white"/>
    <path d="M87.0442 133.115L80.5857 132.411C70.8272 131.355 61.8901 124.512 58.3776 115.402C58.0377 114.543 57.7545 113.642 57.457 112.755C56.5789 110.093 55.7574 107.587 53.9304 106.109C53.1655 105.489 52.1741 105.01 51.1402 104.504C49.6531 103.786 47.9535 102.969 46.6504 101.533C43.8461 98.4491 43.9594 94.563 44.0585 91.1414C44.0869 90.1417 44.1152 89.0857 44.0727 88.1001C43.9452 84.8476 41.7783 82.1442 38.5773 79.1028C36.5378 77.1597 33.9743 75.8221 31.2549 74.4141C29.4562 73.4848 27.6008 72.5133 25.8587 71.3446C20.9157 68.0076 19.6835 59.1652 21.893 53.4908L25.6746 54.9552C24.0883 59.0103 24.9098 65.8392 28.1248 68.0076C29.6686 69.0495 31.3541 69.9225 33.1245 70.8518C35.9713 72.3302 38.9173 73.865 41.3817 76.2023C44.7667 79.4267 47.9251 83.0735 48.1234 87.9593C48.1659 89.0857 48.1234 90.2122 48.1093 91.2822C48.0243 94.3236 47.9393 96.9566 49.6531 98.8433C50.432 99.7022 51.6359 100.28 52.9106 100.885C54.1145 101.462 55.375 102.068 56.5081 102.997C59.2416 105.236 60.3463 108.573 61.3236 111.516C61.5927 112.346 61.876 113.177 62.1876 113.98C64.482 119.907 69.4533 124.695 75.3878 127.018C71.3371 120.175 71.2521 111.079 75.7702 104.377C76.3934 103.448 77.0874 102.589 77.7389 101.758C78.5179 100.772 79.2685 99.843 79.8634 98.8574C80.5149 97.7873 81.5205 95.7457 80.9115 93.9012C80.3024 92.0567 78.2346 90.7894 75.9826 89.5504C71.1388 86.8892 66.125 84.1436 60.8562 82.4258C59.624 82.0315 58.3352 81.6654 57.0605 81.2993C51.3526 79.6801 45.4466 78.0046 41.9199 72.9638C40.5885 71.063 40.0078 68.6271 40.4044 66.6136C40.7018 65.1211 41.495 63.9243 42.6989 63.1358C43.6053 62.5444 44.5401 62.3332 45.3757 62.1361C45.8714 62.0235 46.353 61.9108 46.6646 61.7419C47.4719 61.3054 47.9818 60.193 48.5483 58.9117C48.8174 58.3063 49.1007 57.6727 49.4548 57.0531C51.3951 53.5894 54.8227 51.59 58.1652 49.8441L58.4768 49.6751C61.2245 48.2389 64.0571 46.7464 65.7001 44.4513C67.0881 42.4942 67.343 39.2698 65.5868 37.9181C64.6378 37.1718 63.1932 36.9465 61.6635 36.7072C61.2103 36.6368 60.7571 36.5664 60.318 36.4819C56.763 35.8201 54.3694 33.9897 53.7179 31.4693C52.8115 27.9211 55.5025 25.4148 57.6695 23.4013C59.5532 21.6413 60.7712 20.4022 60.5305 19.2195C60.3463 18.2761 59.185 17.4595 57.9527 16.5865C56.2956 15.4037 54.2278 13.9253 53.7604 11.3768L57.7545 10.6587C57.9244 11.6021 59.0858 12.4187 60.318 13.3058C61.961 14.4744 64.0146 15.9388 64.5104 18.4451C65.2044 21.9229 62.57 24.3869 60.4455 26.3723C58.5193 28.1745 57.3579 29.3432 57.6553 30.4978C57.9386 31.582 59.5957 32.2578 61.0687 32.5394C61.4652 32.6098 61.876 32.6802 62.2867 32.7365C64.1704 33.0322 66.3091 33.3701 68.0937 34.75C71.8611 37.6787 71.507 43.2826 69.0143 46.7886C66.819 49.8863 63.3915 51.6745 60.3605 53.2656L60.0489 53.4345C57.2446 54.8989 54.3978 56.5462 52.9956 59.0385C52.7265 59.5313 52.4857 60.0522 52.2591 60.5732C51.4943 62.3051 50.6162 64.2482 48.5625 65.3323C47.7835 65.7407 46.9903 65.9237 46.2963 66.0927C45.744 66.2194 45.2199 66.3461 44.9225 66.5432C44.7525 66.6559 44.4976 66.8671 44.3985 67.4021C44.2143 68.3455 44.5684 69.6831 45.2624 70.6687C47.9676 74.5267 52.9248 75.9348 58.1794 77.4273C59.5107 77.8074 60.8421 78.1876 62.1309 78.5959C67.7679 80.4123 72.9517 83.2706 77.9655 86.0162C80.8406 87.5932 83.73 89.4096 84.7922 92.648C85.6137 95.1402 85.1038 98.0971 83.3475 100.941C82.6111 102.138 81.7613 103.222 80.9256 104.25C80.2883 105.053 79.6793 105.813 79.141 106.602C74.5946 113.36 75.9826 123.568 82.1578 128.891L87.0725 133.129L87.0442 133.115Z" fill="white"/>
    <path d="M118.388 108.629C115.711 108.629 113.289 107.404 112.1 105.363C108.757 99.6321 109.848 92.2822 110.726 86.3685C111.207 83.1722 111.788 79.1735 110.924 78.1597C110.867 78.0893 110.697 77.8781 109.961 77.864C108.049 77.8077 106.576 77.864 105.16 77.9344C102.922 78.033 100.811 78.1174 97.5822 77.7091C91.9168 76.9769 88.2344 71.3589 87.9511 66.3604C87.6962 61.9815 89.3674 57.4195 92.8941 52.7871C95.7126 49.098 98.6302 47.0846 101.817 46.6481C104.82 46.2397 107.61 47.3239 110.074 48.2814C110.754 48.5489 111.42 48.8164 112.1 49.0417C115.145 50.0836 118.445 50.4497 121.66 50.0977C123.232 49.9288 124.252 49.5064 124.549 48.9009C124.946 48.0983 124.209 46.6762 122.481 44.9021C120.81 43.1843 119.068 41.3961 117.085 40.1993C115.909 39.4953 113.601 38.3829 111.207 38.918C109.154 39.3686 107.411 40.9456 105.57 42.6211C104.99 43.1562 104.409 43.6771 103.814 44.1699C100.684 46.7889 95.9817 48.746 92.1718 46.3665C88.3618 43.9869 88.1919 38.8617 88.1069 36.3976C87.9794 32.6664 87.8095 27.5693 90.5288 23.5987C92.8658 20.1772 96.5341 18.5439 100.089 16.9528C100.868 16.6008 101.647 16.2629 102.398 15.8968C105.754 14.2775 109.239 11.3629 108.899 8.09632L112.935 7.68799C113.388 12.2218 110.117 16.6571 104.168 19.5295C103.375 19.9097 102.568 20.2757 101.746 20.6418C98.5736 22.0639 95.571 23.4016 93.8714 25.8797C92.0443 28.5549 92.0018 32.1736 92.1434 36.285C92.2426 39.1151 92.5683 41.8889 94.3104 42.9731C96.265 44.1981 99.2393 42.7337 101.18 41.1004C101.732 40.6358 102.27 40.143 102.823 39.6502C104.876 37.7916 107.213 35.6936 110.301 34.9896C113.091 34.3701 116.249 34.9896 119.167 36.7637C121.603 38.2281 123.515 40.1993 125.371 42.1001C128.472 45.2823 129.407 48.1687 128.161 50.7032C127.198 52.6462 125.144 53.8008 122.071 54.1388C118.275 54.5471 114.366 54.1247 110.754 52.8856C110.018 52.6322 109.295 52.3506 108.559 52.069C106.363 51.2101 104.281 50.3934 102.341 50.675C100.273 50.9566 98.2337 52.4491 96.1092 55.2511C93.1774 59.095 91.7894 62.77 91.9877 66.1492C92.1718 69.4299 94.5654 73.2738 98.092 73.7244C100.967 74.1046 102.823 74.0201 104.961 73.9215C106.378 73.8652 107.992 73.7948 110.046 73.8511C111.745 73.8934 113.077 74.4847 114.012 75.583C116.037 77.9907 115.456 81.9613 114.706 86.9739C113.884 92.5356 112.949 98.8436 115.584 103.349C116.235 104.462 117.878 104.743 119.139 104.546C121.702 104.138 122.977 101.195 123.515 99.4772C125.243 93.9296 127.75 87.5653 133.175 82.5105C134.789 81.0039 137.055 78.568 138.103 76.7094C139.123 74.9071 138.627 74.0342 137.948 73.3724C137.509 72.95 136.814 72.6543 136.021 72.3164C135.398 72.0488 134.761 71.7813 134.109 71.3871C130.951 69.5003 128.274 64.8257 128.175 60.9677C128.118 58.8556 128.869 57.166 130.314 56.1945L130.554 56.0537C135.2 53.7445 137.749 58.574 138.826 60.6438L139.123 61.2071C140.865 64.4173 141.644 64.1639 141.984 64.0653C142.423 63.9245 142.692 63.0656 143.018 61.8688L143.075 61.6858C143.16 61.3901 143.23 61.0944 143.301 60.7987C143.655 59.3625 144.066 57.7433 145.213 56.3775C146.233 55.1525 147.352 54.5471 148.556 54.6034C149.335 54.6316 150.468 54.9554 151.474 56.3634L148.273 58.6304C148.428 58.6585 148.627 58.6444 148.726 58.5881C148.726 58.5881 148.584 58.6726 148.343 58.9683C147.791 59.6301 147.536 60.672 147.253 61.7843C147.168 62.1223 147.083 62.4461 146.998 62.77L146.955 62.953C146.474 64.699 145.808 67.0926 143.259 67.9233C138.911 69.3454 136.475 64.8398 135.568 63.1501L135.257 62.5588C133.699 59.6019 133.146 59.4048 132.551 59.6441C132.353 59.8553 132.254 60.32 132.268 60.9114C132.339 63.3754 134.265 66.811 136.234 67.9937C136.645 68.2331 137.126 68.4443 137.65 68.6696C138.684 69.1061 139.845 69.5989 140.823 70.5563C143.103 72.781 143.4 75.6816 141.687 78.7511C140.412 81.0039 137.919 83.7214 135.993 85.5237C131.262 89.9308 129.081 95.4502 127.424 100.744C126.022 105.25 123.317 108.038 119.819 108.601C119.337 108.686 118.855 108.714 118.388 108.714V108.629Z" fill="white"/>
    <path d="M54.8787 140C54.5954 140 54.3263 139.944 54.0572 139.831C26.1272 127.455 7.06336 97.6045 7.67238 67.2193C7.70071 66.121 8.60716 65.248 9.69774 65.248H9.74023C10.8591 65.2762 11.7514 66.1914 11.7231 67.3038C11.1424 96.112 29.2148 124.413 55.686 136.142C56.7057 136.593 57.1731 137.79 56.7199 138.803C56.38 139.55 55.6435 140 54.8645 140H54.8787Z" fill="white"/>
    <path d="M27.104 137.029C26.6224 137.029 26.1267 136.86 25.7443 136.508C13.5214 125.469 4.48517 110.657 0.292835 94.7882C0.00956859 93.7041 0.661081 92.6058 1.73749 92.3242C2.82807 92.0426 3.9328 92.6903 4.21607 93.7604C8.21012 108.883 16.8214 123.005 28.4636 133.509C29.2993 134.255 29.3559 135.536 28.6053 136.367C28.2087 136.804 27.6563 137.029 27.104 137.029Z" fill="white"/>
    <path d="M152.465 39.3118C151.643 39.3118 150.864 38.8049 150.553 37.9883C145.454 24.1333 135.866 11.9539 123.572 3.68878C122.637 3.06925 122.396 1.8161 123.019 0.886808C123.643 -0.0424893 124.903 -0.281854 125.838 0.337678C138.84 9.06744 148.967 21.9509 154.363 36.5943C154.745 37.6363 154.207 38.8049 153.159 39.1851C152.932 39.2696 152.692 39.3118 152.465 39.3118Z" fill="white"/>
    <path d="M153.753 23.0211C152.946 23.0211 152.195 22.5424 151.869 21.768C149.532 16.0795 146.275 10.8558 142.153 6.27968C141.403 5.44894 141.474 4.16764 142.323 3.43547C143.159 2.68921 144.448 2.75961 145.184 3.60443C149.603 8.53252 153.13 14.1365 155.637 20.2614C156.062 21.2892 155.566 22.472 154.518 22.8944C154.263 22.9929 154.008 23.0493 153.753 23.0493V23.0211Z" fill="white"/>
  </g>
  <defs>
    <clipPath id="clip0_1325_9266">
      <rect width="155.556" height="140" fill="white" transform="translate(0.222656)"/>
    </clipPath>
  </defs>
</svg>