<svg xmlns="http://www.w3.org/2000/svg" width="49" height="48" viewBox="0 0 49 48" fill="none">
  <path d="M24.875 4C13.835 4 4.875 12.96 4.875 24C4.875 35.04 13.835 44 24.875 44C35.915 44 44.875 35.04 44.875 24C44.875 12.96 35.915 4 24.875 4ZM26.875 38H22.875V34H26.875V38ZM31.015 22.5L29.215 24.34C28.215 25.36 27.495 26.28 27.135 27.72C26.975 28.36 26.875 29.08 26.875 30H22.875V29C22.875 28.08 23.035 27.2 23.315 26.38C23.715 25.22 24.375 24.18 25.215 23.34L27.695 20.82C28.615 19.94 29.055 18.62 28.795 17.22C28.535 15.78 27.415 14.56 26.015 14.16C23.795 13.54 21.735 14.8 21.075 16.7C20.835 17.44 20.215 18 19.435 18H18.835C17.675 18 16.875 16.88 17.195 15.76C18.055 12.82 20.555 10.58 23.655 10.1C26.695 9.62 29.595 11.2 31.395 13.7C33.755 16.96 33.055 20.46 31.015 22.5Z" fill="url(#paint0_linear_2898_33612)"/>
  <defs>
    <linearGradient id="paint0_linear_2898_33612" x1="24.875" y1="4" x2="24.875" y2="44" gradientUnits="userSpaceOnUse">
      <stop stop-color="#FE6E8A"/>
      <stop offset="1" stop-color="#6A5AE0"/>
    </linearGradient>
  </defs>
</svg>