<svg xmlns="http://www.w3.org/2000/svg" width="49" height="48" viewBox="0 0 49 48" fill="none">
  <path d="M38.125 8H29.765C28.925 5.68 26.725 4 24.125 4C21.525 4 19.325 5.68 18.485 8H10.125C9.845 8 9.585 8.02 9.325 8.08C8.545 8.24 7.845 8.64 7.305 9.18C6.945 9.54 6.645 9.98 6.445 10.46C6.245 10.92 6.125 11.44 6.125 12V40C6.125 40.54 6.245 41.08 6.445 41.56C6.645 42.04 6.945 42.46 7.305 42.84C7.845 43.38 8.545 43.78 9.325 43.94C9.585 43.98 9.845 44 10.125 44H38.125C40.325 44 42.125 42.2 42.125 40V12C42.125 9.8 40.325 8 38.125 8ZM20.725 31.76C19.945 32.54 18.665 32.54 17.885 31.76L13.545 27.42C12.765 26.64 12.765 25.38 13.545 24.6L17.885 20.26C18.665 19.48 19.945 19.48 20.725 20.26C21.505 21.04 21.505 22.3 20.725 23.08L17.785 26L20.705 28.92C21.485 29.7 21.505 30.98 20.725 31.76ZM24.125 10.5C23.305 10.5 22.625 9.82 22.625 9C22.625 8.18 23.305 7.5 24.125 7.5C24.945 7.5 25.625 8.18 25.625 9C25.625 9.82 24.945 10.5 24.125 10.5ZM27.525 31.76C26.745 30.98 26.745 29.72 27.525 28.94L30.465 26L27.525 23.06C26.745 22.28 26.745 21.02 27.525 20.24C28.305 19.46 29.585 19.46 30.365 20.24L34.705 24.58C35.485 25.36 35.485 26.62 34.705 27.4L30.365 31.74C29.585 32.54 28.305 32.54 27.525 31.76Z" fill="url(#paint0_linear_2898_33594)"/>
  <defs>
    <linearGradient id="paint0_linear_2898_33594" x1="24.125" y1="4" x2="24.125" y2="44" gradientUnits="userSpaceOnUse">
      <stop stop-color="#FE6E8A"/>
      <stop offset="1" stop-color="#6A5AE0"/>
    </linearGradient>
  </defs>
</svg>