<svg width="37" height="36" viewBox="0 0 37 36" fill="none" xmlns="http://www.w3.org/2000/svg">
<g id="Linkedin">
<path id="Oval 10 Copy 3" fill-rule="evenodd" clip-rule="evenodd" d="M18.2296 36C28.1454 36 36.1838 27.9411 36.1838 18C36.1838 8.05888 28.1454 0 18.2296 0C8.31376 0 0.275391 8.05888 0.275391 18C0.275391 27.9411 8.31376 36 18.2296 36Z" fill="#3A327D"/>
<g id="Group 36">
<path id="Oval" d="M13.7341 14.9671C14.5564 14.9671 15.223 14.3029 15.223 13.4835C15.223 12.6642 14.5564 12 13.7341 12C12.9117 12 12.2451 12.6642 12.2451 13.4835C12.2451 14.3029 12.9117 14.9671 13.7341 14.9671Z" fill="white"/>
<path id="Shape" d="M14.9749 15.957H12.4933C12.3563 15.957 12.2451 16.0678 12.2451 16.2043V23.622C12.2451 23.7585 12.3563 23.8693 12.4933 23.8693H14.9749C15.1118 23.8693 15.223 23.7585 15.223 23.622V16.2043C15.223 16.0678 15.1118 15.957 14.9749 15.957Z" fill="white"/>
<path id="Shape_2" d="M22.3696 15.5444C21.309 15.1825 19.9823 15.5004 19.1868 16.0706C19.1595 15.9643 19.0622 15.8852 18.9465 15.8852H16.465C16.328 15.8852 16.2168 15.9959 16.2168 16.1324V23.5502C16.2168 23.6867 16.328 23.7974 16.465 23.7974H18.9465C19.0835 23.7974 19.1947 23.6867 19.1947 23.5502V18.2193C19.5957 17.8751 20.1124 17.7653 20.5352 17.9443C20.9452 18.1169 21.18 18.5383 21.18 19.0995V23.5502C21.18 23.6867 21.2911 23.7974 21.4281 23.7974H23.9097C24.0467 23.7974 24.1579 23.6867 24.1579 23.5502V18.6015C24.1296 16.5696 23.1702 15.8174 22.3696 15.5444Z" fill="white"/>
</g>
</g>
</svg>
