<svg width="37" height="36" viewBox="0 0 37 36" fill="none" xmlns="http://www.w3.org/2000/svg">
<g id="Linkedin">
<path id="Oval 10 Copy 3" fill-rule="evenodd" clip-rule="evenodd" d="M18.4542 36C28.37 36 36.4084 27.9411 36.4084 18C36.4084 8.05888 28.37 0 18.4542 0C8.53837 0 0.5 8.05888 0.5 18C0.5 27.9411 8.53837 36 18.4542 36Z" fill="white"/>
<g id="Group 36">
<path id="Oval" d="M13.9586 14.9671C14.7809 14.9671 15.4475 14.3029 15.4475 13.4835C15.4475 12.6642 14.7809 12 13.9586 12C13.1362 12 12.4696 12.6642 12.4696 13.4835C12.4696 14.3029 13.1362 14.9671 13.9586 14.9671Z" fill="#706AEA"/>
<path id="Shape" d="M15.1992 15.957H12.7176C12.5807 15.957 12.4695 16.0678 12.4695 16.2043V23.622C12.4695 23.7585 12.5807 23.8693 12.7176 23.8693H15.1992C15.3362 23.8693 15.4474 23.7585 15.4474 23.622V16.2043C15.4474 16.0678 15.3362 15.957 15.1992 15.957Z" fill="#706AEA"/>
<path id="Shape_2" d="M22.5944 15.5464C21.5337 15.1844 20.2071 15.5024 19.4115 16.0726C19.3842 15.9662 19.2869 15.8871 19.1713 15.8871H16.6897C16.5527 15.8871 16.4415 15.9979 16.4415 16.1344V23.5521C16.4415 23.6886 16.5527 23.7994 16.6897 23.7994H19.1713C19.3082 23.7994 19.4194 23.6886 19.4194 23.5521V18.2212C19.8204 17.8771 20.3371 17.7673 20.76 17.9463C21.1699 18.1189 21.4047 18.5402 21.4047 19.1015V23.5521C21.4047 23.6886 21.5159 23.7994 21.6528 23.7994H24.1344C24.2714 23.7994 24.3826 23.6886 24.3826 23.5521V18.6035C24.3543 16.5715 23.3949 15.8194 22.5944 15.5464Z" fill="#706AEA"/>
</g>
</g>
</svg>
