<svg xmlns="http://www.w3.org/2000/svg" width="162" height="140" viewBox="0 0 162 140" fill="none">
  <g clip-path="url(#clip0_1325_9299)">
    <path d="M24.4784 89.8641C23.6444 89.8641 22.9688 89.1885 22.9688 88.3546V68.7839C22.9688 38.2877 49.4027 13.4707 81.8856 13.4707C114.369 13.4707 140.802 38.2877 140.802 68.7839V88.2279C140.802 89.0618 140.127 89.7374 139.293 89.7374C138.459 89.7374 137.783 89.0618 137.783 88.2279V68.7839C137.783 39.9556 112.711 16.5003 81.8962 16.5003C51.0812 16.5003 25.988 39.9556 25.988 68.7839V88.3546C25.988 89.1885 25.3123 89.8641 24.4784 89.8641Z" fill="white"/>
    <path d="M34.7498 86.4226C33.9159 86.4226 33.2402 85.747 33.2402 84.9131V64.5718C33.2402 41.3804 55.0609 22.5063 81.8749 22.5063C108.689 22.5063 130.51 41.3804 130.51 64.5718V83.7097C130.51 84.5436 129.834 85.2192 129 85.2192C128.166 85.2192 127.49 84.5436 127.49 83.7097V64.5718C127.49 43.0482 107.031 25.5253 81.8749 25.5253C56.7183 25.5253 36.2594 43.0377 36.2594 64.5718V84.9131C36.2594 85.747 35.5838 86.4226 34.7498 86.4226Z" fill="white"/>
    <path d="M119.646 86.9927C118.812 86.9927 118.136 86.3172 118.136 85.4832V61.2151C118.136 46.8485 101.974 35.163 82.1167 35.163C62.2596 35.163 46.0973 46.8485 46.0973 61.2151V85.0821C46.0973 85.916 45.4217 86.5916 44.5877 86.5916C43.7538 86.5916 43.0781 85.916 43.0781 85.0821V61.2151C43.0781 45.1806 60.5917 32.144 82.1273 32.144C103.663 32.144 121.176 45.1912 121.176 61.2151V85.4832C121.176 86.3172 120.501 86.9927 119.667 86.9927H119.646Z" fill="white"/>
    <path d="M110.092 91.4581C109.258 91.4581 108.583 90.7825 108.583 89.9486V65.1738C108.583 55.9795 98.4379 45.7508 82.0645 45.2652C74.0308 45.0225 66.7784 47.6403 61.6584 52.6227C57.8897 56.2857 55.6305 60.9725 55.6305 65.1738V88.0485C55.6305 88.8824 54.9549 89.558 54.1209 89.558C53.287 89.558 52.6113 88.8824 52.6113 88.0485V65.1738C52.6113 60.0963 55.1449 54.7339 59.5576 50.4482C65.2794 44.8958 73.3024 41.9929 82.1595 42.2462C100.359 42.7846 111.623 54.565 111.623 65.1738V89.9486C111.623 90.7825 110.948 91.4581 110.114 91.4581H110.092Z" fill="white"/>
    <path d="M45.7295 84.7553C48.1786 85.5575 50.48 86.7398 52.528 88.2809C53.0664 88.1859 53.6047 88.1332 54.1537 88.1332C58.3869 88.1332 61.9023 90.9516 62.5251 94.6145C69.1125 94.794 74.412 99.6603 74.412 105.603C74.412 111.546 69.1125 116.413 62.5251 116.592C61.9023 120.255 58.3869 123.073 54.1537 123.073C53.3514 123.073 52.5596 122.968 51.7996 122.767C47.788 125.533 43.0586 126.99 38.0548 126.99C33.0509 126.99 28.0998 125.448 24.0988 122.619C23.1804 122.915 22.2303 123.073 21.2485 123.073C17.0153 123.073 13.4999 120.255 12.8771 116.592C6.28969 116.413 0.990234 111.546 0.990234 105.603C0.990234 99.6603 6.28969 94.794 12.8771 94.6145C13.4999 90.9516 17.0153 88.1332 21.2485 88.1332C21.9875 88.1332 22.7159 88.2176 23.4337 88.3971C27.5614 85.2514 32.7236 83.5308 38.0653 83.5308C40.6939 83.5308 43.2909 83.953 45.74 84.7553M24.3416 119.41C24.6689 119.41 24.9961 119.516 25.2601 119.717C28.8599 122.461 33.4098 123.971 38.0653 123.971C42.7208 123.971 47.0279 122.556 50.6383 119.896C51.0395 119.59 51.5779 119.516 52.0529 119.685C52.7285 119.928 53.4358 120.054 54.1643 120.054C57.1624 120.054 59.6009 117.985 59.6009 115.431C59.6009 115.367 59.6009 115.315 59.5904 115.251C59.5904 115.251 59.5904 115.156 59.5904 115.146C59.5587 114.702 59.7276 114.27 60.0443 113.964C60.361 113.657 60.8044 113.499 61.2372 113.531C61.5434 113.552 61.8495 113.573 62.1557 113.573C67.2545 113.573 71.3928 109.995 71.3928 105.603C71.3928 101.212 67.244 97.6335 62.1557 97.6335C61.839 97.6335 61.5328 97.6441 61.2372 97.6757C60.7833 97.7074 60.361 97.5596 60.0443 97.2429C59.7276 96.9368 59.5693 96.504 59.6009 96.0607C59.6009 96.0607 59.6009 95.9657 59.6009 95.9551C59.6009 95.8918 59.6115 95.839 59.6115 95.7757C59.6115 93.2317 57.1729 91.1522 54.1748 91.1522C53.6364 91.1522 53.0875 91.226 52.5702 91.3633C52.1057 91.4899 51.6095 91.3844 51.2401 91.0783C47.5769 88.1543 42.9003 86.5498 38.0759 86.5498C33.2515 86.5498 28.4271 88.207 24.7322 91.226C24.3311 91.5533 23.7821 91.6588 23.286 91.4899C22.6314 91.2683 21.9558 91.1522 21.2696 91.1522C18.2715 91.1522 15.8329 93.2211 15.8329 95.7757C15.8329 95.839 15.8329 95.9023 15.8435 95.9657C15.8752 96.409 15.7168 96.884 15.4107 97.2007C15.094 97.5174 14.6611 97.7074 14.2178 97.6757C13.9116 97.6546 13.6055 97.6335 13.2888 97.6335C8.18989 97.6335 4.05167 101.212 4.05167 105.603C4.05167 109.995 8.20045 113.573 13.2888 113.573C13.5949 113.573 13.9116 113.562 14.2072 113.531C14.6611 113.499 15.0834 113.647 15.4001 113.964C15.7168 114.28 15.8752 114.713 15.8435 115.156C15.8329 115.304 15.8224 115.367 15.8224 115.431C15.8224 117.975 18.261 120.054 21.2591 120.054C22.1247 120.054 22.9587 119.885 23.7293 119.537C23.9194 119.453 24.1305 119.41 24.3311 119.41H24.3416Z" fill="white"/>
    <path d="M125.654 127C120.619 127 115.699 125.459 111.698 122.63C110.78 122.925 109.83 123.084 108.848 123.084C104.615 123.084 101.1 120.265 100.477 116.602C93.8893 116.423 88.5898 111.556 88.5898 105.613C88.5898 99.6705 93.8893 94.8042 100.477 94.6248C101.1 90.9618 104.615 88.1434 108.848 88.1434C109.587 88.1434 110.316 88.2279 111.033 88.4073C115.161 85.2616 120.323 83.541 125.665 83.541C131.007 83.541 136.032 85.2194 140.138 88.2806C140.677 88.1856 141.215 88.1329 141.764 88.1329C145.997 88.1329 149.512 90.9513 150.135 94.6142C156.723 94.7937 162.022 99.6599 162.022 105.603C162.022 111.546 156.723 116.412 150.135 116.592C149.512 120.255 145.997 123.073 141.764 123.073C140.962 123.073 140.17 122.967 139.41 122.767C135.398 125.533 130.669 126.989 125.665 126.989L125.654 127ZM111.931 119.41C112.258 119.41 112.585 119.516 112.849 119.716C116.449 122.461 120.999 123.97 125.654 123.97C130.31 123.97 134.617 122.556 138.227 119.896C138.639 119.59 139.167 119.516 139.642 119.685C140.318 119.927 141.025 120.054 141.753 120.054C144.751 120.054 147.201 117.985 147.201 115.431C147.201 115.367 147.201 115.314 147.19 115.251C147.19 115.251 147.19 115.156 147.19 115.146C147.158 114.702 147.327 114.269 147.644 113.963C147.961 113.657 148.393 113.499 148.837 113.53C149.143 113.552 149.449 113.573 149.755 113.573C154.854 113.573 158.992 109.994 158.992 105.603C158.992 101.212 154.844 97.6332 149.755 97.6332C149.439 97.6332 149.132 97.6438 148.837 97.6754C148.383 97.7071 147.961 97.5593 147.644 97.2426C147.327 96.9365 147.169 96.5037 147.201 96.0604C147.201 96.0604 147.201 95.9654 147.201 95.9548C147.201 95.8915 147.211 95.8387 147.211 95.7754C147.211 93.2314 144.773 91.1519 141.764 91.1519C141.225 91.1519 140.677 91.2257 140.159 91.363C139.695 91.4896 139.199 91.3841 138.829 91.078C135.166 88.154 130.489 86.5495 125.665 86.5495C120.841 86.5495 116.006 88.2067 112.321 91.2257C111.92 91.553 111.371 91.6585 110.875 91.4896C110.22 91.268 109.545 91.1519 108.859 91.1519C105.861 91.1519 103.422 93.2208 103.422 95.7754C103.422 95.8387 103.422 95.902 103.433 95.9654C103.464 96.4087 103.306 96.8837 103 97.2004C102.683 97.5171 102.24 97.7071 101.807 97.6754C101.501 97.6543 101.195 97.6332 100.878 97.6332C95.7789 97.6332 91.6407 101.212 91.6407 105.603C91.6407 109.994 95.7895 113.573 100.878 113.573C101.184 113.573 101.501 113.562 101.796 113.53C102.25 113.499 102.672 113.647 102.989 113.963C103.306 114.28 103.464 114.713 103.433 115.156C103.422 115.304 103.411 115.367 103.411 115.431C103.411 117.975 105.85 120.054 108.848 120.054C109.714 120.054 110.548 119.885 111.318 119.537C111.508 119.452 111.72 119.41 111.92 119.41H111.931Z" fill="white"/>
    <path d="M15.9701 54.7445C15.5056 54.7445 15.1045 54.4279 14.9884 53.9739C14.1438 50.5327 13.6582 50.0366 10.2062 49.1921C9.75225 49.0865 9.43555 48.6749 9.43555 48.2104C9.43555 47.7459 9.75225 47.3448 10.2062 47.2287C13.6477 46.3842 14.1438 45.8987 14.9884 42.4469C15.1045 41.993 15.5056 41.6763 15.9701 41.6763C16.4346 41.6763 16.8358 41.993 16.9519 42.4469C17.7964 45.8881 18.282 46.3842 21.7341 47.2287C22.188 47.3343 22.5047 47.7459 22.5047 48.2104C22.5047 48.6749 22.188 49.076 21.7341 49.1921C18.2926 50.0366 17.7964 50.5222 16.9519 53.9739C16.8358 54.4279 16.4346 54.7445 15.9701 54.7445ZM13.6266 48.221C14.7139 48.7699 15.4212 49.4666 15.9701 50.5644C16.5085 49.4771 17.2158 48.7699 18.3137 48.221C17.2264 47.6826 16.5191 46.9754 15.9701 45.8775C15.4212 46.9648 14.7244 47.672 13.6266 48.221Z" fill="white"/>
    <path d="M66.2924 74.1464C65.8279 74.1464 65.4268 73.8297 65.3106 73.3758C64.4661 69.9346 63.9805 69.4384 60.5285 68.594C60.0745 68.4884 59.7578 68.0767 59.7578 67.6123C59.7578 67.1478 60.0745 66.7467 60.5285 66.6306C63.9699 65.7861 64.4661 65.3005 65.3106 61.8487C65.4268 61.3948 65.8279 61.0781 66.2924 61.0781C66.7569 61.0781 67.158 61.3948 67.2742 61.8487C68.1187 65.2899 68.6043 65.7861 72.0563 66.6306C72.5103 66.7361 72.827 67.1478 72.827 67.6123C72.827 68.0767 72.5103 68.4778 72.0563 68.594C68.6149 69.4384 68.1187 69.924 67.2742 73.3758C67.158 73.8297 66.7569 74.1464 66.2924 74.1464ZM63.9488 67.6228C65.0362 68.1612 65.7435 68.8684 66.2924 69.9662C66.8413 68.879 67.5381 68.1717 68.636 67.6228C67.5486 67.0845 66.8413 66.3772 66.2924 65.2794C65.7435 66.3667 65.0467 67.0739 63.9488 67.6228Z" fill="white"/>
    <path d="M148.73 78.6112C148.265 78.6112 147.864 78.2946 147.748 77.8406C146.904 74.3994 146.418 73.9033 142.966 73.0588C142.512 72.9532 142.195 72.5416 142.195 72.0771C142.195 71.6126 142.512 71.2115 142.966 71.0954C146.407 70.2509 146.904 69.7653 147.748 66.3136C147.864 65.8596 148.265 65.543 148.73 65.543C149.194 65.543 149.596 65.8596 149.712 66.3136C150.556 69.7548 151.042 70.2509 154.494 71.0954C154.948 71.201 155.264 71.6126 155.264 72.0771C155.264 72.5416 154.948 72.9427 154.494 73.0588C151.052 73.9033 150.556 74.3889 149.712 77.8406C149.596 78.2946 149.194 78.6112 148.73 78.6112ZM146.386 72.0877C147.474 72.626 148.181 73.3333 148.73 74.4311C149.279 73.3438 149.976 72.6366 151.073 72.0877C149.986 71.5493 149.279 70.8421 148.73 69.7442C148.181 70.8315 147.484 71.5387 146.386 72.0877Z" fill="white"/>
    <path d="M112.49 20.0575C112.025 20.0575 111.624 19.7408 111.508 19.2869C110.663 15.8457 110.178 15.3496 106.726 14.5051C106.272 14.3995 105.955 13.9878 105.955 13.5234C105.955 13.0589 106.272 12.6578 106.726 12.5417C110.167 11.6972 110.663 11.2116 111.508 7.75984C111.624 7.30594 112.025 6.98926 112.49 6.98926C112.954 6.98926 113.355 7.30594 113.471 7.75984C114.316 11.2011 114.802 11.6972 118.254 12.5417C118.708 12.6472 119.024 13.0589 119.024 13.5234C119.024 13.9878 118.708 14.389 118.254 14.5051C114.812 15.3496 114.316 15.8351 113.471 19.2869C113.355 19.7408 112.954 20.0575 112.49 20.0575ZM110.146 13.5339C111.233 14.0723 111.941 14.7795 112.49 15.8774C113.039 14.7901 113.735 14.0829 114.833 13.5339C113.746 12.9956 113.039 12.2883 112.49 11.1905C111.941 12.2778 111.244 12.985 110.146 13.5339Z" fill="white"/>
    <path d="M40.3038 115.874C40.1454 115.874 39.9871 115.874 39.8287 115.874C36.6617 115.737 33.6003 114.195 31.5628 111.768C29.2826 112.749 26.559 113.119 24.4265 112.686C21.8401 112.158 20.0561 110.522 18.7576 108.939C16.1395 109.34 13.3526 108.886 10.9984 107.672C10.2595 107.292 9.96387 106.374 10.3545 105.635C10.7345 104.896 11.6529 104.6 12.3919 104.991C14.4082 106.036 16.8257 106.331 19.0426 105.814C19.6232 105.677 20.2355 105.898 20.5944 106.374C22.1252 108.4 23.4553 109.403 25.0388 109.73C26.8651 110.1 29.4198 109.614 31.2778 108.548C31.9746 108.147 32.8613 108.358 33.3047 109.034C34.751 111.271 37.3057 112.739 39.966 112.855C42.6263 112.971 45.2971 111.746 46.9439 109.646C47.3873 109.076 48.1685 108.907 48.8125 109.224C51.6205 110.617 55.5265 109.625 57.3317 107.06C57.8173 106.374 58.7569 106.215 59.4431 106.69C60.1292 107.176 60.2876 108.115 59.8125 108.801C57.3845 112.253 52.5495 113.72 48.5802 112.38C46.4478 114.586 43.4074 115.884 40.3249 115.884L40.3038 115.874Z" fill="white"/>
    <path d="M128.017 117.553C127.858 117.553 127.7 117.553 127.542 117.553C124.375 117.415 121.313 115.874 119.276 113.446C116.985 114.428 114.261 114.797 112.139 114.365C109.553 113.837 107.769 112.201 106.47 110.617C103.852 111.018 101.065 110.565 98.7113 109.351C97.9723 108.971 97.6768 108.052 98.0674 107.313C98.458 106.574 99.3658 106.279 100.105 106.669C102.121 107.714 104.539 108.01 106.756 107.493C107.336 107.356 107.948 107.577 108.307 108.052C109.838 110.079 111.168 111.082 112.752 111.409C114.578 111.778 117.143 111.293 118.991 110.227C119.687 109.826 120.574 110.037 121.018 110.712C122.464 112.95 125.019 114.417 127.679 114.534C130.35 114.66 133.01 113.425 134.657 111.325C135.1 110.755 135.871 110.575 136.525 110.902C139.333 112.296 143.239 111.303 145.045 108.738C145.53 108.052 146.47 107.894 147.156 108.369C147.842 108.854 148 109.794 147.525 110.48C145.097 113.932 140.262 115.399 136.293 114.059C134.161 116.265 131.12 117.563 128.048 117.563L128.017 117.553Z" fill="white"/>
  </g>
  <defs>
    <clipPath id="clip0_1325_9299">
      <rect width="161" height="140" fill="white" transform="translate(0.5)"/>
    </clipPath>
  </defs>
</svg>