<svg width="37" height="36" viewBox="0 0 37 36" fill="none" xmlns="http://www.w3.org/2000/svg">
<g id="Twitter">
<path id="Oval 10 Copy" fill-rule="evenodd" clip-rule="evenodd" d="M18.271 36C28.1868 36 36.2252 27.9411 36.2252 18C36.2252 8.05888 28.1868 0 18.271 0C8.35514 0 0.316772 8.05888 0.316772 18C0.316772 27.9411 8.35514 36 18.271 36Z" fill="white"/>
<path id="Shape" d="M24.5506 14.2647C24.469 14.1729 24.3377 14.1498 24.2299 14.2064C24.1628 14.2416 24.0368 14.2878 23.8872 14.3334C24.0759 14.0762 24.2277 13.7882 24.2947 13.5293C24.3237 13.4177 24.2813 13.3001 24.1891 13.2336C24.0969 13.1677 23.974 13.1677 23.8818 13.2336C23.7365 13.3375 23.035 13.6497 22.5915 13.7508C21.5892 12.8511 20.4228 12.7577 19.2102 13.4831C18.2245 14.0729 18.01 15.2721 18.0519 16.0031C15.7957 15.7805 14.3933 14.5593 13.6039 13.5485C13.5487 13.4776 13.4596 13.4403 13.376 13.4458C13.288 13.4524 13.2087 13.5024 13.1636 13.5799C12.7904 14.2257 12.6869 14.9396 12.8654 15.6447C12.963 16.0295 13.1336 16.3686 13.3315 16.6434C13.2365 16.5956 13.1448 16.5357 13.0585 16.4642C12.9791 16.3972 12.8681 16.3845 12.7743 16.429C12.681 16.4747 12.6214 16.5714 12.6214 16.6775C12.6214 17.8882 13.3604 18.6962 14.0506 19.1183C13.9391 19.1045 13.8227 19.0792 13.7053 19.0424C13.6044 19.0111 13.495 19.0424 13.4253 19.1238C13.3556 19.2046 13.339 19.32 13.3824 19.4184C13.7702 20.2972 14.5049 20.9017 15.4139 21.121C14.6202 21.5986 13.5578 21.8328 12.585 21.7179C12.4589 21.6998 12.3388 21.7817 12.2991 21.9059C12.2594 22.0301 12.3115 22.1664 12.4225 22.2301C13.8983 23.0793 15.2326 23.3827 16.3856 23.3827C18.0637 23.3827 19.3588 22.7407 20.1471 22.2038C22.2724 20.7583 23.597 18.163 23.4126 15.841C23.7531 15.5832 24.2626 15.1072 24.5784 14.5955C24.6439 14.4922 24.6321 14.3559 24.5506 14.2647Z" fill="#706AEA"/>
</g>
</svg>
