<svg width="36" height="36" viewBox="0 0 36 36" fill="none" xmlns="http://www.w3.org/2000/svg">
<g id="Twitter">
<path id="Oval 10 Copy" fill-rule="evenodd" clip-rule="evenodd" d="M18.046 36C27.9618 36 36.0002 27.9411 36.0002 18C36.0002 8.05888 27.9618 0 18.046 0C8.13017 0 0.0917969 8.05888 0.0917969 18C0.0917969 27.9411 8.13017 36 18.046 36Z" fill="#3A327D"/>
<path id="Shape" d="M24.3252 14.2647C24.2437 14.1729 24.1123 14.1498 24.0045 14.2064C23.9375 14.2416 23.8115 14.2878 23.6618 14.3334C23.8506 14.0762 24.0024 13.7882 24.0694 13.5293C24.0984 13.4177 24.056 13.3001 23.9638 13.2336C23.8715 13.1677 23.7487 13.1677 23.6565 13.2336C23.5111 13.3375 22.8097 13.6497 22.3662 13.7508C21.3638 12.8511 20.1974 12.7577 18.9849 13.4831C17.9992 14.0729 17.7847 15.2721 17.8265 16.0031C15.5704 15.7805 14.168 14.5593 13.3786 13.5485C13.3233 13.4776 13.2343 13.4403 13.1506 13.4458C13.0627 13.4524 12.9833 13.5024 12.9383 13.5799C12.565 14.2257 12.4615 14.9396 12.6401 15.6447C12.7377 16.0295 12.9082 16.3686 13.1061 16.6434C13.0112 16.5956 12.9195 16.5357 12.8332 16.4642C12.7538 16.3972 12.6428 16.3845 12.5489 16.429C12.4556 16.4747 12.3961 16.5714 12.3961 16.6775C12.3961 17.8882 13.1351 18.6962 13.8253 19.1183C13.7137 19.1045 13.5974 19.0792 13.4799 19.0424C13.3791 19.0111 13.2697 19.0424 13.2 19.1238C13.1303 19.2046 13.1136 19.32 13.1571 19.4184C13.5448 20.2972 14.2795 20.9017 15.1885 21.121C14.3948 21.5986 13.3324 21.8328 12.3596 21.7179C12.2336 21.6998 12.1135 21.7817 12.0738 21.9059C12.0341 22.0301 12.0861 22.1664 12.1971 22.2301C13.673 23.0793 15.0073 23.3827 16.1603 23.3827C17.8383 23.3827 19.1334 22.7407 19.9218 22.2038C22.0471 20.7583 23.3717 18.163 23.1872 15.841C23.5278 15.5832 24.0372 15.1072 24.3531 14.5955C24.4185 14.4922 24.4067 14.3559 24.3252 14.2647Z" fill="white"/>
</g>
</svg>
